<svg xmlns="http://www.w3.org/2000/svg" viewBox="0 0 330 559"><g transform="translate(-144.359516,750.020829) scale(1,-1)" fill="#4F46E5"><path d="M258 748 c-2 -3 -5 -14 -6 -25 -1 -5 -2 -13 -3 -17 -1 -4 -2 -12 -3
-17 -1 -10 -6 -22 -11 -26 -10 -10 -22 -12 -59 -12 -26 0 -26 0 -28 -2 -3 -3
-3 -3 -3 -46 -1 -32 -1 -44 0 -45 1 -3 1 -3 31 -3 32 0 33 0 33 -5 0 -1 0 -43
0 -93 0 -106 1 -137 4 -150 1 -5 2 -13 3 -16 1 -4 2 -10 4 -13 1 -2 2 -6 2 -7
0 -1 1 -5 3 -8 2 -3 3 -6 3 -7 0 0 1 -2 3 -4 2 -3 3 -5 3 -6 0 -1 11 -14 17
-19 9 -9 11 -11 12 -11 0 0 2 -1 4 -2 1 -2 4 -3 7 -4 2 -1 4 -2 5 -3 2 -1 11
-5 20 -8 24 -7 73 -9 97 -4 3 1 9 2 14 3 5 1 10 2 13 3 2 1 6 2 8 3 6 1 9 2
11 4 2 3 2 108 0 110 -2 1 -8 0 -11 -3 -2 -1 -13 -6 -21 -8 -5 -1 -11 -1 -25
-1 -19 1 -20 1 -27 4 -9 3 -18 10 -21 15 -1 2 -3 5 -4 7 -5 8 -5 10 -6 117 0
99 0 99 2 100 2 2 6 2 55 2 50 0 53 0 54 2 3 3 3 92 0 96 -1 2 -1 2 -54 2 -52
0 -53 0 -55 2 -2 2 -2 3 -2 48 0 45 0 47 -2 48 -1 1 -14 1 -34 1 -32 0 -32 0
-33 -2z"/></g></svg>
